<svg width="32" height="32" viewBox="0 0 32 32" fill="none" xmlns="http://www.w3.org/2000/svg">
<path d="M15.2658 4.92705C15.5652 4.00574 16.8686 4.00574 17.1679 4.92705L19.5846 12.3647C19.7185 12.7768 20.1024 13.0557 20.5357 13.0557H28.3561C29.3248 13.0557 29.7276 14.2953 28.9439 14.8647L22.617 19.4615C22.2665 19.7161 22.1199 20.1675 22.2537 20.5795L24.6704 28.0172C24.9697 28.9385 23.9153 29.7047 23.1316 29.1353L16.8047 24.5385C16.4542 24.2839 15.9796 24.2839 15.6291 24.5385L9.30222 29.1353C8.51851 29.7047 7.46403 28.9385 7.76338 28.0172L10.18 20.5795C10.3139 20.1675 10.1673 19.7161 9.81676 19.4615L3.48988 14.8647C2.70617 14.2953 3.10894 13.0557 4.07767 13.0557H11.8981C12.3313 13.0557 12.7153 12.7768 12.8492 12.3647L15.2658 4.92705Z" fill="#FFC700"/>
</svg>
