<svg width="64" height="64" viewBox="0 0 64 64" fill="none" xmlns="http://www.w3.org/2000/svg">
<path d="M43.25 56.8889C43.25 57.5323 42.8464 58.2733 41.8157 59.0609C40.7963 59.84 39.274 60.5738 37.3257 61.2036C33.4374 62.4604 28.0189 63.25 22 63.25C15.9811 63.25 10.5626 62.4604 6.67432 61.2036C4.72599 60.5738 3.20367 59.84 2.18427 59.0609C1.15365 58.2733 0.75 57.5323 0.75 56.8889C0.75 56.2454 1.15365 55.5044 2.18427 54.7168C3.20367 53.9378 4.72599 53.204 6.67432 52.5742C10.5626 51.3174 15.9811 50.5278 22 50.5278C28.0189 50.5278 33.4374 51.3174 37.3257 52.5742C39.274 53.204 40.7963 53.9378 41.8157 54.7168C42.8464 55.5044 43.25 56.2454 43.25 56.8889Z" stroke="#2D208A" stroke-width="1.5"/>
<path d="M38.3611 17.1413C38.3611 21.7578 36.4734 31.6053 33.3923 40.315C31.8539 44.6642 30.0361 48.676 28.0418 51.5856C26.0132 54.5453 23.9588 56.1389 22 56.1389C20.0412 56.1389 17.9869 54.5453 15.9582 51.5856C13.964 48.676 12.1462 44.6642 10.6077 40.315C7.52667 31.6053 5.6389 21.7578 5.6389 17.1413C5.6389 8.08738 12.9653 0.75 22 0.75C31.0348 0.75 38.3611 8.08738 38.3611 17.1413Z" fill="white" stroke="#2D208A" stroke-width="1.5"/>
<path d="M30.7778 18.963C30.7778 23.6184 26.8771 27.4444 22 27.4444C17.1229 27.4444 13.2222 23.6184 13.2222 18.963C13.2222 14.3075 17.1229 10.4815 22 10.4815C26.8771 10.4815 30.7778 14.3075 30.7778 18.963Z" stroke="#A70894" stroke-width="2"/>
</svg>
