<svg width="64" height="64" viewBox="0 0 64 64" fill="none" xmlns="http://www.w3.org/2000/svg">
<g clip-path="url(#clip0)">
<ellipse cx="11" cy="61.4761" rx="3.66667" ry="3.52392" fill="#2D208A"/>
<ellipse cx="33" cy="61.4761" rx="3.66667" ry="3.52392" fill="#2D208A"/>
<path d="M32 8.94355H32.75V8.19355V4C32.75 2.48122 31.5188 1.25 30 1.25H16C14.4812 1.25 13.25 2.48122 13.25 4V8.19355V8.94355H14H32Z" stroke="#2D208A" stroke-width="1.5"/>
<rect x="0.75" y="7.01808" width="42.5" height="52.5334" rx="1.25" fill="white" stroke="#2D208A" stroke-width="1.5"/>
<line x1="34.9722" y1="16.4152" x2="34.9722" y2="50.1543" stroke="#A70894" stroke-width="1.5" stroke-linecap="round"/>
<line x1="0.75" y1="-0.75" x2="20.3926" y2="-0.75" transform="matrix(0.00871769 0.999962 -0.999968 0.00805215 12.2222 22.713)" stroke="#A70894" stroke-width="1.5" stroke-linecap="round"/>
<line x1="0.75" y1="-0.75" x2="20.3926" y2="-0.75" transform="matrix(0.00871769 0.999962 -0.999968 0.00805215 29.3333 22.713)" stroke="#A70894" stroke-width="1.5" stroke-linecap="round"/>
<line x1="0.75" y1="-0.75" x2="20.3926" y2="-0.75" transform="matrix(0.00871769 0.999962 -0.999968 0.00805215 17.1111 15.6652)" stroke="#A70894" stroke-width="1.5" stroke-linecap="round"/>
<line x1="0.75" y1="-0.75" x2="20.3926" y2="-0.75" transform="matrix(0.00871769 0.999962 -0.999968 0.00805215 24.4445 29.7608)" stroke="#A70894" stroke-width="1.5" stroke-linecap="round"/>
<line x1="8.08331" y1="16.4152" x2="8.08331" y2="50.1543" stroke="#A70894" stroke-width="1.5" stroke-linecap="round"/>
</g>
<defs>
<clipPath id="clip0">
<rect width="64" height="64" fill="white"/>
</clipPath>
</defs>
</svg>
