<svg width="64" height="64" viewBox="0 0 64 64" fill="none" xmlns="http://www.w3.org/2000/svg">
<g clip-path="url(#clip0)">
<path d="M27.6957 64.0556H28.1957V63.5556V52C28.1957 49.5147 26.1809 47.5 23.6957 47.5H23C20.5147 47.5 18.5 49.5147 18.5 52V63.5556V64.0556H19H27.6957Z" stroke="#2D208A"/>
<path d="M34.7391 63.5H35.2391V63V5C35.2391 3.61929 34.1198 2.5 32.7391 2.5H15C13.6193 2.5 12.5 3.61929 12.5 5V63V63.5H13H34.7391Z" stroke="#2D208A"/>
<path d="M36 27.5H35.5V28V63V63.5H36H49H49.5V63V31C49.5 29.067 47.933 27.5 46 27.5H36Z" stroke="#2D208A"/>
<path d="M12.3696 14.1111V13.6111H11.8696H3C1.61929 13.6111 0.5 14.7304 0.5 16.1111V63V63.5H1H11.8696H12.3696V63V14.1111Z" stroke="#2D208A"/>
<rect x="15" y="34.2222" width="6.52174" height="6.66667" rx="0.5" fill="#A70894"/>
<rect x="3.17392" y="51.8889" width="6.52174" height="6.66667" rx="0.5" fill="#A70894"/>
<rect x="3.17392" y="40.7778" width="6.52174" height="6.66667" rx="0.5" fill="#A70894"/>
<rect x="38.1739" y="31.4445" width="8.69565" height="6.66667" rx="0.5" fill="#A70894"/>
<rect x="38.1739" y="42.3333" width="8.69565" height="6.66667" rx="0.5" fill="#A70894"/>
<rect x="38.1739" y="53.2222" width="8.69565" height="6.66667" rx="0.5" fill="#A70894"/>
<rect x="3.17392" y="29.6667" width="6.52174" height="6.66667" rx="0.5" fill="#A70894"/>
<rect x="3.17392" y="18.5555" width="6.52174" height="6.66667" rx="0.5" fill="#A70894"/>
<rect x="25.8696" y="34.2222" width="6.52174" height="6.66667" rx="0.5" fill="#A70894"/>
<rect x="15" y="23.1111" width="6.52174" height="6.66667" rx="0.5" fill="#A70894"/>
<rect x="25.8696" y="23.1111" width="6.52174" height="6.66667" rx="0.5" fill="#A70894"/>
<rect x="15" y="12" width="6.52174" height="6.66667" rx="0.6" fill="#A70894"/>
<rect x="25.8696" y="12" width="6.52174" height="6.66667" rx="0.5" fill="#A70894"/>
</g>
<defs>
<clipPath id="clip0">
<rect width="64" height="64" fill="white"/>
</clipPath>
</defs>
</svg>
