<svg width="32" height="32" viewBox="0 0 32 32" fill="none" xmlns="http://www.w3.org/2000/svg">
<path d="M15.1304 31.5H15.6304V31V25.3961C15.6304 23.9194 14.4333 22.7222 12.9565 22.7222C11.4798 22.7222 10.2826 23.9194 10.2826 25.3961V31V31.5H10.7826H15.1304Z" stroke="#2D208A"/>
<path d="M18.3913 31.5H18.8913V31V3C18.8913 1.61929 17.772 0.5 16.3913 0.5H9.52173C8.14102 0.5 7.02173 1.61929 7.02173 3V31V31.5H7.52173H18.3913Z" stroke="#2D208A"/>
<path d="M19.4783 13.8333H18.9783V14.3333V31V31.5H19.4783H26H26.5V31V17.3333C26.5 15.4003 24.933 13.8333 23 13.8333H19.4783Z" stroke="#2D208A"/>
<path d="M6.93478 6.55556V6.05556H6.43478H3C1.61929 6.05556 0.5 7.17484 0.5 8.55556V31V31.5H1H6.43478H6.93478V31V6.55556Z" stroke="#2D208A"/>
<rect x="8.6087" y="16.5556" width="3.26087" height="3.33333" rx="0.5" fill="#A70894"/>
<rect x="2.08694" y="25.4444" width="3.26087" height="3.33333" rx="0.5" fill="#A70894"/>
<rect x="2.08694" y="19.8889" width="3.26087" height="3.33333" rx="0.5" fill="#A70894"/>
<rect x="20.5652" y="16.5556" width="4.34783" height="3.33333" rx="0.5" fill="#A70894"/>
<rect x="20.5652" y="21" width="4.34783" height="3.33333" rx="0.5" fill="#A70894"/>
<rect x="20.5652" y="25.4444" width="4.34783" height="3.33333" rx="0.5" fill="#A70894"/>
<rect x="2.08694" y="14.3333" width="3.26087" height="3.33333" rx="0.5" fill="#A70894"/>
<rect x="2.08694" y="8.77777" width="3.26087" height="3.33333" rx="0.5" fill="#A70894"/>
<rect x="14.0435" y="16.5556" width="3.26087" height="3.33333" rx="0.5" fill="#A70894"/>
<rect x="8.6087" y="11" width="3.26087" height="3.33333" rx="0.5" fill="#A70894"/>
<rect x="14.0435" y="11" width="3.26087" height="3.33333" rx="0.5" fill="#A70894"/>
<rect x="8.6087" y="5.44444" width="3.26087" height="3.33333" rx="0.6" fill="#A70894"/>
<rect x="14.0435" y="5.44444" width="3.26087" height="3.33333" rx="0.5" fill="#A70894"/>
</svg>
