<svg width="32" height="32" viewBox="0 0 32 32" fill="none" xmlns="http://www.w3.org/2000/svg">
<path d="M1.64285 10C1.64285 9.17157 2.31443 8.5 3.14285 8.5H28.8571C29.6856 8.5 30.3571 9.17157 30.3571 10V20.8158H1.64285V10Z" fill="white" stroke="#2D208A"/>
<path d="M5.07144 17.2632C5.07144 16.4347 5.74301 15.7632 6.57144 15.7632H14C14.8284 15.7632 15.5 16.4347 15.5 17.2632V22.0263H5.07144V17.2632Z" fill="white" stroke="#A70894"/>
<path d="M16.5 17.2632C16.5 16.4347 17.1716 15.7632 18 15.7632H25.4286C26.257 15.7632 26.9286 16.4347 26.9286 17.2632V22.0263H16.5V17.2632Z" fill="white" stroke="#A70894"/>
<path d="M0.5 23.8947C0.5 21.4095 2.51472 19.3947 5 19.3947H27C29.4853 19.3947 31.5 21.4095 31.5 23.8947V25.6579H0.5V23.8947Z" fill="white" stroke="#2D208A"/>
<mask id="path-5-outside-1_10_237" maskUnits="userSpaceOnUse" x="0.142853" y="25.1579" width="32" height="7" fill="black">
<rect fill="white" x="0.142853" y="25.1579" width="32" height="7"/>
<path fill-rule="evenodd" clip-rule="evenodd" d="M29.6686 31V27.3684H2.33142V31H1.14285V27.3684V26.1579H2.33142L29.6686 26.1579H30.8571L30.8571 27.3684L30.8571 31H29.6686Z"/>
</mask>
<path fill-rule="evenodd" clip-rule="evenodd" d="M29.6686 31V27.3684H2.33142V31H1.14285V27.3684V26.1579H2.33142L29.6686 26.1579H30.8571L30.8571 27.3684L30.8571 31H29.6686Z" fill="white"/>
<path d="M29.6686 27.3684H30.6686V26.3684H29.6686V27.3684ZM29.6686 31H28.6686V32H29.6686V31ZM2.33142 27.3684V26.3684H1.33142V27.3684H2.33142ZM2.33142 31V32H3.33142V31H2.33142ZM1.14285 31H0.142853V32H1.14285V31ZM1.14285 26.1579V25.1579H0.142853V26.1579H1.14285ZM2.33142 26.1579V27.1579H2.33142L2.33142 26.1579ZM29.6686 26.1579V25.1579V26.1579ZM30.8571 26.1579L31.8571 26.1579L31.8571 25.1579H30.8571V26.1579ZM30.8571 27.3684L31.8571 27.3684V27.3684L30.8571 27.3684ZM30.8571 31V32H31.8571L31.8571 31L30.8571 31ZM28.6686 27.3684V31H30.6686V27.3684H28.6686ZM29.6686 26.3684H2.33142V28.3684H29.6686V26.3684ZM3.33142 31V27.3684H1.33142V31H3.33142ZM1.14285 32H2.33142V30H1.14285V32ZM0.142853 27.3684V31H2.14285V27.3684H0.142853ZM2.14285 27.3684V26.1579H0.142853V27.3684H2.14285ZM1.14285 27.1579H2.33142V25.1579H1.14285V27.1579ZM2.33142 27.1579L29.6686 27.1579V25.1579L2.33142 25.1579L2.33142 27.1579ZM29.6686 27.1579H30.8571V25.1579H29.6686V27.1579ZM29.8571 26.1579L29.8571 27.3684L31.8571 27.3684L31.8571 26.1579L29.8571 26.1579ZM31.8571 31L31.8571 27.3684L29.8571 27.3684L29.8571 31L31.8571 31ZM29.6686 32H30.8571V30H29.6686V32Z" fill="#2D208A" mask="url(#path-5-outside-1_10_237)"/>
</svg>
