<svg width="32" height="32" viewBox="0 0 32 32" fill="none" xmlns="http://www.w3.org/2000/svg">
<g clip-path="url(#clip0_10_406)">
<path fill-rule="evenodd" clip-rule="evenodd" d="M1.07863 0.828583H0.612802L0.579881 1.29325L0.0612469 8.61361C-0.000908241 9.49091 0.269507 10.3595 0.818683 11.0464L1.97057 12.4873C2.22106 12.8007 2.3356 13.2013 2.2886 13.5997L1.18357 22.9663L1.18012 22.9955V23.0249V29.1088C1.18012 30.7137 2.48117 32.0148 4.08609 32.0148V31.0148C3.03345 31.0148 2.18012 30.1614 2.18012 29.1088V23.0543L3.28172 13.7169C3.36005 13.0529 3.16915 12.3851 2.75166 11.8629L1.59977 10.422C1.2075 9.93132 1.01435 9.31093 1.05875 8.68428L1.54446 1.82858H2.3831V6.35961H3.3831V1.82858H4.08609V0.828583H2.8831H1.07863ZM7.09354 0.828583H7.55937L7.59229 1.29325L8.11093 8.61361C8.17308 9.49091 7.90267 10.3595 7.35349 11.0464L6.20161 12.4873C5.95111 12.8007 5.83657 13.2013 5.88357 13.5997L6.98861 22.9663L6.99205 22.9955V23.0249V29.1088C6.99205 30.7137 5.69101 32.0148 4.08609 32.0148V31.0148C5.13872 31.0148 5.99205 30.1614 5.99205 29.1088V23.0543L4.89046 13.7169C4.81212 13.0529 5.00303 12.3851 5.42052 11.8629L6.5724 10.422C6.96467 9.93132 7.15783 9.31093 7.11343 8.68428L6.62772 1.82858H5.78907V6.35961H4.78907V1.82858H4.08609V0.828583H5.28907H7.09354Z" fill="#2D208A"/>
<path fill-rule="evenodd" clip-rule="evenodd" d="M9.00002 1.98401V1L9.79481 1.58016L10.7955 2.31064C15.2189 5.5395 16.51 11.5737 13.801 16.3282L13.0661 19.2785V21.6791V23.433L14.9105 28.2461C15.6091 30.0693 14.2631 32.0266 12.3106 32.0266V31.0266C13.5618 31.0266 14.4244 29.7723 13.9767 28.6039L12.0992 23.7044L12.0661 23.618V23.5255V21.6791V19.2172V19.1559L12.0809 19.0964L12.8405 16.0468C12.8563 15.9834 12.8808 15.9225 12.9134 15.8658C15.3952 11.5482 14.2284 6.05453 10.2059 3.11834L10 2.96802V5.67684H10V24.2564V24.2642V24.2721V24.28V24.2879V24.2958V24.3037V24.3117V24.3196V24.3275V24.3355V24.3434V24.3514V24.3594V24.3673V24.3753V24.3833V24.3913V24.3993V24.4073V24.4154V24.4234V24.4314V24.4395V24.4475V24.4556V24.4636V24.4717V24.4798V24.4879V24.496V24.5041V24.5122V24.5203V24.5285V24.5366V24.5447V24.5529V24.561V24.5692V24.5774V24.5855V24.5937V24.6019V24.6101V24.6183V24.6265V24.6347V24.643V24.6512V24.6594V24.6677V24.6759V24.6842V24.6925V24.7007V24.709V24.7173V24.7256V24.7339V24.7422V24.7505V24.7588V24.7671V24.7755V24.7838V24.7921V24.8005V24.8088V24.8172V24.8256V24.8339V24.8423V24.8507V24.8591V24.8675V24.8759V24.8843V24.8927V24.9011V24.9096V24.918V24.9264V24.9349V24.9433V24.9518V24.9603V24.9687V24.9772V24.9857V24.9942V25.0027V25.0112V25.0197V25.0282V25.0367V25.0452V25.0537V25.0622V25.0708V25.0793V25.0879V25.0964V25.105V25.1135V25.1221V25.1307V25.1392V25.1478V25.1564V25.165V25.1736V25.1822V25.1908V25.1994V25.208V25.2167V25.2253V25.2339V25.2425V25.2512V25.2598V25.2685V25.2771V25.2858V25.2945V25.3031V25.3118V25.3205V25.3291V25.3378V25.3465V25.3552V25.3639V25.3726V25.3813V25.39V25.3988V25.4075V25.4162V25.4249V25.4337V25.4424V25.4511V25.4599V25.4686V25.4774V25.4862V25.4949V25.5037V25.5125V25.5212V25.53V25.5388V25.5476V25.5564V25.5652V25.5739V25.5827V25.5916V25.6004V25.6092V25.618V25.6268V25.6356V25.6444V25.6533V25.6621V25.6709V25.6798V25.6886V25.6975V25.7063V25.7152V25.724V25.7329V25.7417V25.7506V25.7595V25.7683V25.7772V25.7861V25.795V25.8039V25.8127V25.8216V25.8305V25.8394V25.8483V25.8572V25.8661V25.875V25.8839V25.8928V25.9018V25.9107V25.9196V25.9285V25.9374V25.9464V25.9553V25.9642V25.9731V25.9821V25.991V26V26.0089V26.0179V26.0268V26.0357V26.0447V26.0537V26.0626V26.0716V26.0805V26.0895V26.0985V26.1074V26.1164V26.1254V26.1343V26.1433V26.1523V26.1613V26.1702V26.1792V26.1882V26.1972V26.2062V26.2152V26.2242V26.2331V26.2421V26.2511V26.2601V26.2691V26.2781V26.2871V26.2961V26.3051V26.3141V26.3231V26.3321V26.3412V26.3502V26.3592V26.3682V26.3772V26.3862V26.3952V26.4042V26.4133V26.4223V26.4313V26.4403V26.4493V26.4584V26.4674V26.4764V26.4854V26.4945V26.5035V26.5125V26.5215V26.5306V26.5396V26.5486V26.5577V26.5667V26.5757V26.5848V26.5938V26.6028V26.6118V26.6209V26.6299V26.6389V26.648V26.657V26.6661V26.6751V26.6841V26.6932V26.7022V26.7112V26.7203V26.7293V26.7383V26.7474V26.7564V26.7654V26.7745V26.7835V26.7925V26.8016V26.8106V26.8196V26.8287V26.8377V26.8467V26.8558V26.8648V26.8738V26.8829V26.8919V26.9009V26.91V26.919V26.928V26.9371V26.9461V26.9551V26.9641V26.9732V26.9822V26.9912V27.0002V27.0093V27.0183V27.0273V27.0363V27.0453V27.0543V27.0634V27.0724V27.0814V27.0904V27.0994V27.1084V27.1174V27.1265V27.1355V27.1445V27.1535V27.1625V27.1715V27.1805V27.1895V27.1985V27.2075V27.2165V27.2255V27.2344V27.2434V27.2524V27.2614V27.2704V27.2794V27.2884V27.2973V27.3063V27.3153V27.3243V27.3332V27.3422V27.3512V27.3601V27.3691V27.3781V27.387V27.396V27.405V27.4139V27.4229V27.4318V27.4408V27.4497V27.4586V27.4676V27.4765V27.4855V27.4944V27.5033V27.5123V27.5212V27.5301V27.539V27.5479V27.5569V27.5658V27.5747V27.5836V27.5925V27.6014V27.6103V27.6192V27.6281V27.637V27.6459V27.6548V27.6636V27.6725V27.6814V27.6903V27.6991V27.708V27.7169V27.7257V27.7346V27.7435V27.7523V27.7612V27.77V27.7788V27.7877V27.7965V27.8053V27.8142V27.823V27.8318V27.8406V27.8495V27.8583V27.8671V27.8759V27.8847V27.8935V27.9023V27.9111V27.9198V27.9286V27.9374V27.9462V27.955V27.9637V27.9725V27.9812V27.99V27.9987V28.0075V28.0162V28.025V28.0337V28.0424V28.0512V28.0599V28.0686V28.0773V28.086V28.0947V28.1034V28.1121V28.1208V28.1295V28.1382V28.1469V28.1555V28.1642V28.1729V28.1815V28.1902V28.1988V28.2075V28.2161V28.2247V28.2334V28.242V28.2506V28.2592V28.2679V28.2765V28.2851V28.2937V28.3023V28.3108V28.3194V28.328V28.3366V28.3451V28.3537V28.3623V28.3708V28.3793V28.3879V28.3964V28.405V28.4135V28.422V28.4305V28.439V28.4475V28.456V28.4645V28.473V28.4815V28.4899V28.4984V28.5069V28.5153V28.5238V28.5322V28.5407V28.5491V28.5575V28.566V28.5744V28.5828V28.5912V28.5996V28.608V28.6164V28.6247V28.6331V28.6415V28.6499V28.6582V28.6666V28.6749V28.6832V28.6916V28.6999V28.7082V28.7165C10 29.9925 11.0344 31.0266 12.3106 31.0266V32.0266C10.4823 32.0266 9 30.545 9 28.7165V28.7082V28.6999V28.6916V28.6832V28.6749V28.6666V28.6582V28.6499V28.6415V28.6331V28.6247V28.6164V28.608V28.5996V28.5912V28.5828V28.5744V28.566V28.5575V28.5491V28.5407V28.5322V28.5238V28.5153V28.5069V28.4984V28.4899V28.4815V28.473V28.4645V28.456V28.4475V28.439V28.4305V28.422V28.4135V28.405V28.3964V28.3879V28.3793V28.3708V28.3623V28.3537V28.3451V28.3366V28.328V28.3194V28.3108V28.3023V28.2937V28.2851V28.2765V28.2679V28.2592V28.2506V28.242V28.2334V28.2247V28.2161V28.2075V28.1988V28.1902V28.1815V28.1729V28.1642V28.1555V28.1469V28.1382V28.1295V28.1208V28.1121V28.1034V28.0947V28.086V28.0773V28.0686V28.0599V28.0512V28.0424V28.0337V28.025V28.0162V28.0075V27.9987V27.99V27.9812V27.9725V27.9637V27.955V27.9462V27.9374V27.9286V27.9198V27.9111V27.9023V27.8935V27.8847V27.8759V27.8671V27.8583V27.8495V27.8406V27.8318V27.823V27.8142V27.8053V27.7965V27.7877V27.7788V27.77V27.7612V27.7523V27.7435V27.7346V27.7257V27.7169V27.708V27.6991V27.6903V27.6814V27.6725V27.6636V27.6548V27.6459V27.637V27.6281V27.6192V27.6103V27.6014V27.5925V27.5836V27.5747V27.5658V27.5569V27.5479V27.539V27.5301V27.5212V27.5123V27.5033V27.4944V27.4855V27.4765V27.4676V27.4586V27.4497V27.4408V27.4318V27.4229V27.4139V27.405V27.396V27.387V27.3781V27.3691V27.3601V27.3512V27.3422V27.3332V27.3243V27.3153V27.3063V27.2973V27.2884V27.2794V27.2704V27.2614V27.2524V27.2434V27.2344V27.2255V27.2165V27.2075V27.1985V27.1895V27.1805V27.1715V27.1625V27.1535V27.1445V27.1355V27.1265V27.1174V27.1084V27.0994V27.0904V27.0814V27.0724V27.0634V27.0543V27.0453V27.0363V27.0273V27.0183V27.0093V27.0002V26.9912V26.9822V26.9732V26.9641V26.9551V26.9461V26.9371V26.928V26.919V26.91V26.9009V26.8919V26.8829V26.8738V26.8648V26.8558V26.8467V26.8377V26.8287V26.8196V26.8106V26.8016V26.7925V26.7835V26.7745V26.7654V26.7564V26.7474V26.7383V26.7293V26.7203V26.7112V26.7022V26.6932V26.6841V26.6751V26.6661V26.657V26.648V26.6389V26.6299V26.6209V26.6118V26.6028V26.5938V26.5848V26.5757V26.5667V26.5577V26.5486V26.5396V26.5306V26.5215V26.5125V26.5035V26.4945V26.4854V26.4764V26.4674V26.4584V26.4493V26.4403V26.4313V26.4223V26.4133V26.4042V26.3952V26.3862V26.3772V26.3682V26.3592V26.3502V26.3412V26.3321V26.3231V26.3141V26.3051V26.2961V26.2871V26.2781V26.2691V26.2601V26.2511V26.2421V26.2331V26.2242V26.2152V26.2062V26.1972V26.1882V26.1792V26.1702V26.1613V26.1523V26.1433V26.1343V26.1254V26.1164V26.1074V26.0985V26.0895V26.0805V26.0716V26.0626V26.0537V26.0447V26.0357V26.0268V26.0179V26.0089V26V25.991V25.9821V25.9731V25.9642V25.9553V25.9464V25.9374V25.9285V25.9196V25.9107V25.9018V25.8928V25.8839V25.875V25.8661V25.8572V25.8483V25.8394V25.8305V25.8216V25.8127V25.8039V25.795V25.7861V25.7772V25.7683V25.7595V25.7506V25.7417V25.7329V25.724V25.7152V25.7063V25.6975V25.6886V25.6798V25.6709V25.6621V25.6533V25.6444V25.6356V25.6268V25.618V25.6092V25.6004V25.5916V25.5827V25.5739V25.5652V25.5564V25.5476V25.5388V25.53V25.5212V25.5125V25.5037V25.4949V25.4862V25.4774V25.4686V25.4599V25.4511V25.4424V25.4337V25.4249V25.4162V25.4075V25.3988V25.39V25.3813V25.3726V25.3639V25.3552V25.3465V25.3378V25.3291V25.3205V25.3118V25.3031V25.2945V25.2858V25.2771V25.2685V25.2598V25.2512V25.2425V25.2339V25.2253V25.2167V25.208V25.1994V25.1908V25.1822V25.1736V25.165V25.1564V25.1478V25.1392V25.1307V25.1221V25.1135V25.105V25.0964V25.0879V25.0793V25.0708V25.0622V25.0537V25.0452V25.0367V25.0282V25.0197V25.0112V25.0027V24.9942V24.9857V24.9772V24.9687V24.9603V24.9518V24.9433V24.9349V24.9264V24.918V24.9096V24.9011V24.8927V24.8843V24.8759V24.8675V24.8591V24.8507V24.8423V24.8339V24.8256V24.8172V24.8088V24.8005V24.7921V24.7838V24.7755V24.7671V24.7588V24.7505V24.7422V24.7339V24.7256V24.7173V24.709V24.7007V24.6925V24.6842V24.6759V24.6677V24.6594V24.6512V24.643V24.6347V24.6265V24.6183V24.6101V24.6019V24.5937V24.5855V24.5774V24.5692V24.561V24.5529V24.5447V24.5366V24.5285V24.5203V24.5122V24.5041V24.496V24.4879V24.4798V24.4717V24.4636V24.4556V24.4475V24.4395V24.4314V24.4234V24.4154V24.4073V24.3993V24.3913V24.3833V24.3753V24.3673V24.3594V24.3514V24.3434V24.3355V24.3275V24.3196V24.3117V24.3037V24.2958V24.2879V24.28V24.2721V24.2642V24.2564V5.67684H9.00002V1.98401Z" fill="#A70894"/>
</g>
<defs>
<clipPath id="clip0_10_406">
<rect width="32" height="32" fill="white"/>
</clipPath>
</defs>
</svg>
