<svg width="32" height="32" viewBox="0 0 32 32" fill="none" xmlns="http://www.w3.org/2000/svg">
<g clip-path="url(#clip0_10_250)">
<line x1="28.0385" y1="32" x2="28.0385" y2="15.1579" stroke="#A70894"/>
<path d="M24.5329 15.0789L25.8475 8.5H30.0756L31.3902 15.0789H24.5329Z" stroke="#2D208A"/>
<path d="M4.80771 20C4.80771 19.1716 5.47928 18.5 6.30771 18.5H13.8462C14.6746 18.5 15.3462 19.1716 15.3462 20V26.3421H4.80771V20Z" fill="white" stroke="#A70894"/>
<path d="M15.1923 20C15.1923 19.1716 15.8639 18.5 16.6923 18.5H24.2308C25.0592 18.5 25.7308 19.1716 25.7308 20V26.3421H15.1923V20Z" fill="white" stroke="#A70894"/>
<rect x="4.96155" y="26.3421" width="21.7692" height="3.52632" stroke="#2D208A"/>
<path d="M5 30.6579H5.5V30.1579V25.6579C5.5 24.5533 4.60457 23.6579 3.5 23.6579C2.39543 23.6579 1.5 24.5533 1.5 25.6579V30.1579V30.6579H2H5Z" fill="white" stroke="#2D208A"/>
<path d="M26 30.6579H25.5V30.1579V25.6579C25.5 24.5533 26.3954 23.6579 27.5 23.6579C28.6046 23.6579 29.5 24.5533 29.5 25.6579V30.1579V30.6579H29H26Z" fill="white" stroke="#2D208A"/>
<rect x="2.5" y="30.6579" width="1" height="1" fill="white" stroke="#2D208A"/>
<rect x="27.5" y="30.6579" width="1" height="1" fill="white" stroke="#2D208A"/>
</g>
<defs>
<clipPath id="clip0_10_250">
<rect width="32" height="32" fill="white"/>
</clipPath>
</defs>
</svg>
