<svg width="32" height="32" viewBox="0 0 32 32" fill="none" xmlns="http://www.w3.org/2000/svg">
<path d="M21.5 28.4444C21.5 28.7098 21.3335 29.0479 20.832 29.4311C20.3379 29.8087 19.5915 30.1702 18.6244 30.4828C16.6957 31.1062 14 31.5 11 31.5C7.99996 31.5 5.30426 31.1062 3.37561 30.4828C2.40849 30.1702 1.66209 29.8087 1.16803 29.4311C0.666496 29.0479 0.5 28.7098 0.5 28.4444C0.5 28.1791 0.666496 27.841 1.16803 27.4577C1.66209 27.0802 2.40849 26.7187 3.37561 26.406C5.30426 25.7826 7.99996 25.3889 11 25.3889C14 25.3889 16.6957 25.7826 18.6244 26.406C19.5915 26.7187 20.3379 27.0802 20.832 27.4577C21.3335 27.841 21.5 28.1791 21.5 28.4444Z" stroke="#2D208A"/>
<path d="M19.0556 8.57064C19.0556 10.8594 18.1163 15.7682 16.5783 20.1158C15.8107 22.2858 14.9061 24.2802 13.9178 25.7221C12.9066 27.1975 11.9121 27.9444 11 27.9444C10.0879 27.9444 9.09345 27.1975 8.08223 25.7221C7.0939 24.2802 6.18931 22.2858 5.4217 20.1158C3.88377 15.7682 2.94446 10.8594 2.94446 8.57064C2.94446 4.11252 6.55188 0.5 11 0.5C15.4481 0.5 19.0556 4.11252 19.0556 8.57064Z" fill="white" stroke="#2D208A"/>
<path d="M15.3889 9.48148C15.3889 11.8092 13.4385 13.7222 11 13.7222C8.56147 13.7222 6.61111 11.8092 6.61111 9.48148C6.61111 7.15377 8.56147 5.24074 11 5.24074C13.4385 5.24074 15.3889 7.15377 15.3889 9.48148Z" stroke="#A70894"/>
</svg>
