<svg width="32" height="32" viewBox="0 0 32 32" fill="none" xmlns="http://www.w3.org/2000/svg">
<g clip-path="url(#clip0_10_271)">
<path d="M0 13.4737V13.4737C7.40714 1.68074 24.5929 1.68074 32 13.4737V13.4737" stroke="#2D208A" stroke-width="1.5"/>
<path d="M4.57143 18.1053V18.1053C8.99726 8.24032 23.0027 8.24032 27.4286 18.1053V18.1053" stroke="#2D208A" stroke-width="1.5"/>
<path d="M10.2857 22.7368V22.7368C11.6539 16.6376 20.3461 16.6376 21.7143 22.7368V22.7368" stroke="#2D208A" stroke-width="1.5"/>
<path d="M18.9286 28.5263C18.9286 30.1748 17.6113 31.5 16 31.5C14.3887 31.5 13.0714 30.1748 13.0714 28.5263C13.0714 26.8778 14.3887 25.5526 16 25.5526C17.6113 25.5526 18.9286 26.8778 18.9286 28.5263Z" fill="#A70894" stroke="#A70894"/>
</g>
<defs>
<clipPath id="clip0_10_271">
<rect width="32" height="32" fill="white"/>
</clipPath>
</defs>
</svg>
